<?xml version="1.0" encoding="UTF-8"?>
<svg xmlns="http://www.w3.org/2000/svg" viewBox="0 0 128 128">
  <defs>
    <style>
      .cls-1 {
        fill: #ec2227;
      }

      .cls-2 {
        fill: #405fac;
      }

      .cls-3 {
        fill: #f78e21;
      }

      .cls-4 {
        fill: none;
      }

      .cls-5 {
        fill: #fbed19;
      }

      .cls-6 {
        fill: #732a83;
      }

      .cls-7 {
        fill: #118341;
      }
    </style>
  </defs>
  <g id="Layer_2" data-name="Layer 2">
    <rect class="cls-4" width="128" height="128"/>
  </g>
  <g id="Layer_1" data-name="Layer 1">
    <g id="Layer_4" data-name="Layer 4">
      <path class="cls-4" d="M128,0V21.44h-26.3C83-.21,47.97-5.45,24.25,18.17c-1.09,1.05-2.12,2.14-3.09,3.27H0V0H128Z"/>
      <path class="cls-1" d="M101.7,21.44h-13.26c-2.88-3.35-6.31-6.23-10.27-8.45-10.24-5.87-23.57-5.89-33.85-.11-4.02,2.3-7.51,5.2-10.46,8.56h-12.7c.97-1.13,2-2.22,3.09-3.27C47.97-5.45,83-.21,101.7,21.44Z"/>
      <path class="cls-4" d="M128,21.44v21.44h-15.13c-2.09-8.23-6.01-15.46-11.17-21.44h26.3Z"/>
      <path class="cls-4" d="M21.16,21.44c-5.41,6.25-9.09,13.64-11.05,21.44H0V21.44H21.16Z"/>
      <path class="cls-3" d="M33.86,21.44c-5.3,6.01-8.9,13.47-10.78,21.44H10.11c1.96-7.8,5.64-15.19,11.05-21.44h12.7Z"/>
      <path class="cls-3" d="M112.87,42.88h-13.86c-1.85-7.85-5.34-15.4-10.57-21.44h13.26c5.16,5.98,9.08,13.21,11.17,21.44Z"/>
      <path class="cls-4" d="M128,42.89v21.44h-14.02c.37-2.56,.57-5.2,.58-7.92-.02-4.75-.61-9.27-1.69-13.52h15.13Z"/>
      <path class="cls-4" d="M9.02,64.33H0v-21.44H10.11c-1.75,6.99-2.11,14.31-1.09,21.44Z"/>
      <path class="cls-5" d="M22.05,64.33H9.02c-1.02-7.13-.66-14.45,1.09-21.44h12.97c-1.66,6.96-2,14.32-1.03,21.44Z"/>
      <path class="cls-5" d="M114.56,56.41c-.01,2.72-.21,5.36-.58,7.92h-13.93c.36-2.65,.54-5.31,.54-7.92,0-4.46-.52-9.04-1.58-13.52h13.86c1.08,4.25,1.67,8.77,1.69,13.52Z"/>
      <path class="cls-4" d="M128,64.33v20.78h-21.65c3.83-6.05,6.51-13.04,7.63-20.78h14.02Z"/>
      <path class="cls-4" d="M16.53,85.11H0v-20.78H9.02c1.04,7.32,3.54,14.44,7.51,20.78Z"/>
      <path class="cls-7" d="M29.66,85.77h-12.71c-.15-.22-.29-.44-.42-.66-3.97-6.34-6.47-13.46-7.51-20.78h13.03c.99,7.41,3.39,14.56,7.2,20.78,.13,.22,.27,.44,.41,.66Z"/>
      <path class="cls-7" d="M113.98,64.33c-1.12,7.74-3.8,14.73-7.63,20.78-.14,.22-.28,.44-.42,.66h-13.38c.15-.22,.28-.44,.41-.66,3.77-6.29,6.11-13.53,7.09-20.78h13.93Z"/>
      <path class="cls-4" d="M128,85.11v.66h-22.07c.14-.22,.28-.44,.42-.66h21.65Z"/>
      <path class="cls-4" d="M128,85.77v20.78h-47.93c10.39-4,19.58-11.18,25.86-20.78h22.07Z"/>
      <path class="cls-2" d="M92.96,85.11c-.13,.22-.26,.44-.41,.66-.55,.92-1.15,1.82-1.79,2.69-9.8-2.75-22.67-3.65-27.23,6.7-1,3.03-1.11,6.09-.56,9.04-6.46,.34-13.01-1.09-18.65-4.26-6.12-3.5-11.01-8.42-14.66-14.17-.14-.22-.28-.44-.41-.66h-12.72c.13,.22,.27,.44,.42,.66,2.06,3.19,4.49,6.17,7.3,8.88,5.48,5.46,11.57,9.38,17.92,11.9h37.9c10.39-4,19.58-11.18,25.86-20.78,.14-.22,.28-.44,.42-.66h-13.39Zm-14.79,14.71c-2.87,1.65-5.98,2.83-9.19,3.56-2.59-11.64,9.29-12.58,19.47-12.01-2.88,3.35-6.31,6.23-10.28,8.45Z"/>
      <path class="cls-4" d="M16.95,85.77H0v-.66H16.53c.13,.22,.27,.44,.42,.66Z"/>
      <path class="cls-4" d="M42.17,106.55H0v-20.78H16.95c2.06,3.19,4.49,6.17,7.3,8.88,5.48,5.46,11.57,9.38,17.92,11.9Z"/>
      <path class="cls-4" d="M104.64,128H0v-21.44H42.19c7.39,2.94,15.14,4,22.7,3.43,.01,.04,.03,.07,.05,.11,5.12,8.08,20.4,13.83,39.7,17.9Z"/>
      <path class="cls-4" d="M128,106.56v20.58c-25.65-4.35-48.29-10.23-56.11-18.16,2.78-.59,5.51-1.4,8.15-2.42h47.96Z"/>
      <path class="cls-6" d="M128,127.14v.86h-23.36c-19.3-4.07-34.58-9.82-39.7-17.9-.02-.04-.04-.07-.05-.11-7.56,.57-15.31-.49-22.7-3.43h37.85c-2.64,1.02-5.37,1.83-8.15,2.42,7.82,7.93,30.46,13.81,56.11,18.16Z"/>
    </g>
  </g>
</svg>